<?xml version="1.0"?>
<!-- Generated by SVGo -->
<svg width="100.000mm" height="150.000mm"
     viewBox="0.000 0.000 100.000 150.000"
     xmlns="http://www.w3.org/2000/svg" 
     xmlns:xlink="http://www.w3.org/1999/xlink">
<text x="60" y="15" style="fill:black;font-size:1.3mm;">Contours</text>
<polygon points="24.000,7.000 36.000,7.000 36.000,23.000 24.000,23.000" style="fill:none;stroke:black;stroke-width:0.2;fill:red;fill-opacity:0.5;"/>
<polygon points="24.000,7.000 24.836,7.044 25.663,7.175 26.472,7.392 27.254,7.692 28.000,8.072 28.702,8.528 29.353,9.055 29.945,9.647 30.472,10.298 30.928,11.000 31.308,11.746 31.608,12.528 31.825,13.337 31.956,14.164 32.000,15.000 31.956,15.836 31.825,16.663 31.608,17.472 31.308,18.254 30.928,19.000 30.472,19.702 29.945,20.353 29.353,20.945 28.702,21.472 28.000,21.928 27.254,22.308 26.472,22.608 25.663,22.825 24.836,22.956 24.000,23.000 23.164,22.956 22.337,22.825 21.528,22.608 20.746,22.308 20.000,21.928 19.298,21.472 18.647,20.945 18.055,20.353 17.528,19.702 17.072,19.000 16.692,18.254 16.392,17.472 16.175,16.663 16.044,15.836 16.000,15.000 16.044,14.164 16.175,13.337 16.392,12.528 16.692,11.746 17.072,11.000 17.528,10.298 18.055,9.647 18.647,9.055 19.298,8.528 20.000,8.072 20.746,7.692 21.528,7.392 22.337,7.175 23.164,7.044" style="fill:none;stroke:black;stroke-width:0.2;fill:blue;fill-opacity:0.5;"/>
<text x="60" y="40" style="fill:black;font-size:1.3mm;">Union</text>
<g transform="translate(0.000,25.000)">
<polygon points="24.000,7.000 23.164,7.044 22.337,7.175 21.528,7.392 20.746,7.692 20.000,8.072 19.298,8.528 18.647,9.055 18.055,9.647 17.528,10.298 17.072,11.000 16.692,11.746 16.392,12.528 16.175,13.337 16.044,14.164 16.000,15.000 16.044,15.836 16.175,16.663 16.392,17.472 16.692,18.254 17.072,19.000 17.528,19.702 18.055,20.353 18.647,20.945 19.298,21.472 20.000,21.928 20.746,22.308 21.528,22.608 22.337,22.825 23.164,22.956 24.000,23.000" style="fill:none;stroke:black;stroke-width:0.2"/>
</g>
<text x="60" y="65" style="fill:black;font-size:1.3mm;">Intersection</text>
<g transform="translate(0.000,50.000)">
<polygon points="24.000,23.000 24.000,23.000 24.000,7.000 24.000,23.000" style="fill:none;stroke:black;stroke-width:0.2"/>
</g>
<g transform="translate(0.000,50.000)">
<polygon points="31.956,15.836 31.825,16.663 31.608,17.472 31.308,18.254 30.928,19.000 30.472,19.702 29.945,20.353 29.353,20.945 28.702,21.472 28.000,21.928 27.254,22.308 26.472,22.608 25.663,22.825 24.836,22.956 24.000,23.000 31.673,12.769 31.825,13.337 31.956,14.164 32.000,15.000" style="fill:none;stroke:black;stroke-width:0.2"/>
</g>
<text x="60" y="90" style="fill:black;font-size:1.3mm;">Difference</text>
<g transform="translate(0.000,75.000)">
<polygon points="36.000,23.000 36.000,7.000 31.673,12.769 31.825,13.337 31.956,14.164 32.000,15.000 31.956,15.836 31.825,16.663 31.608,17.472 31.308,18.254 30.928,19.000 30.472,19.702 29.945,20.353 29.353,20.945 28.702,21.472 28.000,21.928 27.254,22.308 26.472,22.608 25.663,22.825 24.836,22.956 24.000,23.000" style="fill:none;stroke:black;stroke-width:0.2"/>
</g>
</svg>
